<?xml version="1.0" encoding="UTF-8" standalone="no"?>
<svg
   width="131.10547"
   height="273.51953"
   viewBox="0 0 131.10547 273.51953"
   version="1.1"
   id="svg37"
   xmlns="http://www.w3.org/2000/svg"
   xmlns:svg="http://www.w3.org/2000/svg">
  <defs
     id="defs41" />

  <g
     id="g976"
     transform="translate(-111.40625,-35.210938)">
    <path
       style="fill:#000000;fill-opacity:1;fill-rule:nonzero;stroke:none"
       d="m 167.07812,51.28125 6.15235,-14.496094 h 4.99219 l 0.41015,60.566406 h -4.51172 c -2.82812,-18.578124 -7.02343,-32.136718 -12.58593,-40.679687 -5.51563,-8.539063 -11.875,-12.808594 -19.07813,-12.808594 -6.01953,0 -10.94531,2.957031 -14.77344,8.878907 -3.83203,5.917968 -5.74609,13.144531 -5.74609,21.6875 0,5.316406 0.73047,10 2.19141,14.046874 1.45703,3.96875 3.62109,7.226563 6.49609,9.777344 2.91797,2.468754 8.38672,5.128904 16.41406,7.976564 11.26172,4.04687 19.14844,8.12891 23.66016,12.25 4.5625,4.12109 7.95703,9.32422 10.1914,15.61719 2.23438,6.21875 3.35157,13.52343 3.35157,21.91406 0,14.98437 -3.07813,27.42187 -9.23438,37.30859 -6.10937,9.81641 -14.01953,14.72266 -23.73047,14.72266 -10.4414,0 -19.51172,-5.54688 -27.21875,-16.63281 l -7.72656,15.50781 h -4.92578 v -64.39063 h 4.92578 c 1.91406,17.75391 6.19922,31.76563 12.85547,42.02735 6.65625,10.26562 14.15625,15.39453 22.5,15.39453 6.75,0 12.24219,-3.25781 16.48437,-9.77344 4.28516,-6.59375 6.42579,-14.57422 6.42579,-23.9375 0,-5.32031 -0.79688,-9.96484 -2.39063,-13.93359 -1.59766,-4.04688 -4.12891,-7.41797 -7.59375,-10.11328 -3.46484,-2.77344 -10.28125,-6.10547 -20.44922,-10.00391 -11.16797,-4.34375 -18.78515,-9.21484 -22.83984,-14.60547 -5.69922,-7.64453 -8.55078,-18.468749 -8.55078,-32.476561 0,-14.609375 2.82812,-26.558594 8.48047,-35.847657 5.69922,-9.367187 12.97265,-14.046874 21.8164,-14.046874 4.24219,0 8.27735,1.234374 12.10547,3.707031 3.83203,2.472656 7.79688,6.59375 11.90234,12.363281 z m 0,0"
       id="path4" />
    <path
       style="fill:#007f00;fill-opacity:1;fill-rule:nonzero;stroke:none"
       d="m 116.33203,142.52734 v 8.42969 h 0.15625 v -8.37109 c 0.3125,2.89453 0.69141,5.67578 1.12891,8.37109 h 7.33203 c 2.87109,0 4.83203,0.67188 5.8789,2.01953 1.05079,1.27344 1.57422,3.33594 1.57422,6.1836 v 114.62109 c 0,9.51562 -1.11718,16.14453 -3.35156,19.89062 -2.23437,3.7461 -6.47265,5.95704 -12.71875,6.62891 v 8.42969 h 38.16016 v -8.42969 c -4.69532,-0.44922 -8.07032,-1.60937 -10.1211,-3.48437 -2.00781,-1.94532 -3.55468,-4.67969 -4.65234,-8.20313 -1.09375,-3.59375 -1.64063,-8.98828 -1.64063,-16.17969 v -67.75781 c -1.89843,-1.03516 -3.73828,-2.30469 -5.51953,-3.8125 v -11.79297 c 1.78516,2.23047 3.625,4.12891 5.51953,5.67578 v -43.11718 l 35.97266,157.10156 h 4.65234 l 33.44141,-157.77344 v 141.14063 c 0,2.39843 -0.58984,4.38281 -1.77734,5.95703 -1.1836,1.49609 -3.00782,2.24609 -5.47266,2.24609 h -8.61328 v 8.42969 h 46.23047 v -8.42969 h -7.72656 c -3.01172,0 -5.13282,-0.71094 -6.36329,-2.13672 -1.23046,-1.42187 -1.84375,-3.44531 -1.84375,-6.0664 V 160.50781 c 0,-3.51953 0.5,-5.99219 1.50391,-7.41797 1.04688,-1.42187 3.05469,-2.13281 6.01953,-2.13281 h 8.41016 v -8.42969 h -34.46875 l -27.83594,131.25391 -15.89062,-69.16016 c 0.0391,-0.0234 0.082,-0.0508 0.125,-0.0742 l -1.84766,-8.03515 c -0.0391,0.0273 -0.082,0.0586 -0.12109,0.0859 l -12.42579,-54.07032 z m 0,0"
       id="path6" />
  </g>
</svg>
