<?xml version="1.0" encoding="UTF-8"?>
<svg xmlns="http://www.w3.org/2000/svg" xmlns:xlink="http://www.w3.org/1999/xlink" width="354px" height="500px" viewBox="0 0 354 500" version="1.1">
<g id="surface1">
<path style=" stroke:none;fill-rule:evenodd;fill:rgb(84.705882%,89.803922%,94.509804%);fill-opacity:1;" d="M 27.6875 0 L 325.617188 0 C 341.929688 0 355.15625 13.210938 355.15625 29.507812 L 355.15625 475.851562 C 355.15625 492.144531 341.929688 505.355469 325.617188 505.355469 L 27.6875 505.355469 C 11.375 505.355469 -1.851562 492.144531 -1.851562 475.851562 L -1.851562 29.507812 C -1.851562 13.210938 11.375 0 27.6875 0 Z M 27.6875 0 "/>
<path style=" stroke:none;fill-rule:nonzero;fill:rgb(0%,0%,0%);fill-opacity:1;" d="M 167.078125 51.28125 L 173.230469 36.785156 L 178.222656 36.785156 L 178.632812 97.351562 L 174.121094 97.351562 C 171.292969 78.773438 167.097656 65.214844 161.535156 56.671875 C 156.019531 48.132812 149.660156 43.863281 142.457031 43.863281 C 136.4375 43.863281 131.511719 46.820312 127.683594 52.742188 C 123.851562 58.660156 121.9375 65.886719 121.9375 74.429688 C 121.9375 79.746094 122.667969 84.429688 124.128906 88.476562 C 125.585938 92.445312 127.75 95.703125 130.625 98.253906 C 133.542969 100.722656 139.011719 103.382812 147.039062 106.230469 C 158.300781 110.277344 166.1875 114.359375 170.699219 118.480469 C 175.261719 122.601562 178.65625 127.804688 180.890625 134.097656 C 183.125 140.316406 184.242188 147.621094 184.242188 156.011719 C 184.242188 170.996094 181.164062 183.433594 175.007812 193.320312 C 168.898438 203.136719 160.988281 208.042969 151.277344 208.042969 C 140.835938 208.042969 131.765625 202.496094 124.058594 191.410156 L 116.332031 206.917969 L 111.40625 206.917969 L 111.40625 142.527344 L 116.332031 142.527344 C 118.246094 160.28125 122.53125 174.292969 129.1875 184.554688 C 135.84375 194.820312 143.34375 199.949219 151.6875 199.949219 C 158.4375 199.949219 163.929688 196.691406 168.171875 190.175781 C 172.457031 183.582031 174.597656 175.601562 174.597656 166.238281 C 174.597656 160.917969 173.800781 156.273438 172.207031 152.304688 C 170.609375 148.257812 168.078125 144.886719 164.613281 142.191406 C 161.148438 139.417969 154.332031 136.085938 144.164062 132.1875 C 132.996094 127.84375 125.378906 122.972656 121.324219 117.582031 C 115.625 109.9375 112.773438 99.113281 112.773438 85.105469 C 112.773438 70.496094 115.601562 58.546875 121.253906 49.257812 C 126.953125 39.890625 134.226562 35.210938 143.070312 35.210938 C 147.3125 35.210938 151.347656 36.445312 155.175781 38.917969 C 159.007812 41.390625 162.972656 45.511719 167.078125 51.28125 Z M 167.078125 51.28125 "/>
<path style=" stroke:none;fill-rule:nonzero;fill:rgb(0%,50.196078%,0%);fill-opacity:1;" d="M 116.332031 142.527344 L 116.332031 150.957031 L 116.488281 150.957031 L 116.488281 142.585938 C 116.800781 145.480469 117.179688 148.261719 117.617188 150.957031 L 124.949219 150.957031 C 127.820312 150.957031 129.78125 151.628906 130.828125 152.976562 C 131.878906 154.25 132.402344 156.3125 132.402344 159.160156 L 132.402344 273.78125 C 132.402344 283.296875 131.285156 289.925781 129.050781 293.671875 C 126.816406 297.417969 122.578125 299.628906 116.332031 300.300781 L 116.332031 308.730469 L 154.492188 308.730469 L 154.492188 300.300781 C 149.796875 299.851562 146.421875 298.691406 144.371094 296.816406 C 142.363281 294.871094 140.816406 292.136719 139.71875 288.613281 C 138.625 285.019531 138.078125 279.625 138.078125 272.433594 L 138.078125 204.675781 C 136.179688 203.640625 134.339844 202.371094 132.558594 200.863281 L 132.558594 189.070312 C 134.34375 191.300781 136.183594 193.199219 138.078125 194.746094 L 138.078125 151.628906 L 174.050781 308.730469 L 178.703125 308.730469 L 212.144531 150.957031 L 212.144531 292.097656 C 212.144531 294.496094 211.554688 296.480469 210.367188 298.054688 C 209.183594 299.550781 207.359375 300.300781 204.894531 300.300781 L 196.28125 300.300781 L 196.28125 308.730469 L 242.511719 308.730469 L 242.511719 300.300781 L 234.785156 300.300781 C 231.773438 300.300781 229.652344 299.589844 228.421875 298.164062 C 227.191406 296.742188 226.578125 294.71875 226.578125 292.097656 L 226.578125 160.507812 C 226.578125 156.988281 227.078125 154.515625 228.082031 153.089844 C 229.128906 151.667969 231.136719 150.957031 234.101562 150.957031 L 242.511719 150.957031 L 242.511719 142.527344 L 208.042969 142.527344 L 180.207031 273.78125 L 164.316406 204.621094 C 164.355469 204.597656 164.398438 204.570312 164.441406 204.546875 L 162.59375 196.511719 C 162.554688 196.539062 162.511719 196.570312 162.472656 196.597656 L 150.046875 142.527344 Z M 116.332031 142.527344 "/>
<path style=" stroke:none;fill-rule:nonzero;fill:rgb(0%,0%,0%);fill-opacity:1;" d="M 52.066406 398.585938 L 62.796875 398.585938 L 62.796875 400.855469 C 62.214844 400.855469 61.671875 401.152344 61.167969 401.746094 C 60.664062 402.3125 60.40625 403.042969 60.382812 403.933594 L 60.382812 416.199219 C 60.382812 417.039062 60.324219 417.886719 60.203125 418.75 C 60.101562 419.589844 59.863281 420.546875 59.480469 421.625 C 59.097656 422.707031 58.597656 423.652344 57.972656 424.460938 C 57.351562 425.242188 56.464844 425.917969 55.320312 426.484375 C 54.195312 427.023438 52.890625 427.292969 51.402344 427.292969 C 50.699219 427.292969 49.964844 427.199219 49.203125 427.011719 C 48.460938 426.820312 47.695312 426.5 46.914062 426.039062 C 46.128906 425.582031 45.4375 425.027344 44.832031 424.378906 C 44.230469 423.730469 43.726562 422.90625 43.328125 421.910156 C 42.945312 420.882812 42.753906 419.761719 42.753906 418.546875 C 42.753906 418.0625 42.792969 417.589844 42.875 417.132812 C 42.875 417.023438 42.894531 416.890625 42.933594 416.726562 C 43.015625 416.320312 43.136719 415.929688 43.296875 415.550781 C 43.578125 414.957031 43.9375 414.5 44.382812 414.175781 C 44.824219 413.824219 45.296875 413.648438 45.796875 413.648438 C 46 413.648438 46.199219 413.675781 46.402344 413.730469 C 47.6875 414.136719 48.429688 415.148438 48.628906 416.765625 C 48.792969 417.902344 48.601562 418.886719 48.058594 419.722656 C 47.433594 420.75 47.292969 421.707031 47.636719 422.597656 C 47.738281 422.839844 47.855469 423.082031 47.996094 423.328125 C 48.160156 423.570312 48.390625 423.878906 48.691406 424.257812 C 49.011719 424.609375 49.433594 424.890625 49.957031 425.109375 C 50.480469 425.324219 51.0625 425.433594 51.703125 425.433594 C 52.789062 425.433594 53.664062 425.257812 54.328125 424.90625 C 55.011719 424.554688 55.601562 424 56.105469 423.246094 C 56.488281 422.734375 56.667969 421.976562 56.648438 420.976562 C 56.628906 419.980469 56.40625 419.265625 55.984375 418.832031 C 55.582031 418.453125 55.230469 417.929688 54.929688 417.253906 C 54.648438 416.550781 54.507812 415.796875 54.507812 414.984375 L 54.507812 404.09375 C 54.507812 403.148438 54.246094 402.378906 53.722656 401.785156 C 53.222656 401.164062 52.667969 400.855469 52.066406 400.855469 Z M 52.066406 398.585938 "/>
<path style=" stroke:none;fill-rule:nonzero;fill:rgb(0%,0%,0%);fill-opacity:1;" d="M 78.679688 398.585938 L 85.1875 398.585938 L 85.1875 400.855469 C 84.605469 400.855469 84.054688 401.164062 83.53125 401.785156 C 83.027344 402.378906 82.777344 403.136719 82.777344 404.054688 L 82.777344 416.320312 C 82.777344 418.183594 82.675781 419.65625 82.476562 420.734375 C 82.273438 421.816406 81.933594 422.800781 81.449219 423.691406 C 80.125 426.09375 77.894531 427.292969 74.761719 427.292969 C 71.828125 427.292969 69.507812 426.457031 67.796875 424.785156 C 67.375 424.351562 67.015625 423.894531 66.714844 423.40625 C 66.414062 422.894531 66.179688 422.300781 66.019531 421.625 C 65.839844 420.925781 65.71875 420.140625 65.660156 419.277344 C 65.578125 418.414062 65.539062 417.375 65.539062 416.160156 L 65.539062 403.972656 C 65.519531 403.054688 65.257812 402.3125 64.753906 401.746094 C 64.253906 401.152344 63.710938 400.855469 63.128906 400.855469 L 63.128906 398.585938 L 73.796875 398.585938 L 73.796875 400.855469 C 73.214844 400.855469 72.671875 401.152344 72.167969 401.746094 C 71.667969 402.3125 71.40625 403.054688 71.386719 403.972656 L 71.386719 414.703125 C 71.386719 415.917969 71.023438 416.984375 70.300781 417.902344 C 69.898438 418.386719 69.605469 418.941406 69.425781 419.5625 C 69.246094 420.183594 69.164062 420.734375 69.183594 421.222656 C 69.226562 421.707031 69.316406 422.140625 69.457031 422.515625 C 69.777344 423.328125 70.429688 423.972656 71.414062 424.460938 C 72.417969 424.917969 73.59375 425.148438 74.941406 425.148438 C 76.027344 425.148438 76.960938 424.945312 77.742188 424.542969 C 78.546875 424.109375 79.152344 423.609375 79.550781 423.042969 C 79.972656 422.449219 80.304688 421.71875 80.546875 420.855469 C 80.808594 419.992188 80.96875 419.222656 81.027344 418.546875 C 81.089844 417.847656 81.121094 417.078125 81.121094 416.242188 L 81.121094 404.054688 C 81.121094 403.136719 80.859375 402.378906 80.335938 401.785156 C 79.832031 401.164062 79.28125 400.855469 78.679688 400.855469 Z M 78.679688 398.585938 "/>
<path style=" stroke:none;fill-rule:nonzero;fill:rgb(0%,0%,0%);fill-opacity:1;" d="M 103.453125 417.375 C 103.453125 417.402344 103.453125 417.457031 103.453125 417.535156 C 103.472656 417.617188 103.480469 417.683594 103.480469 417.738281 C 103.503906 419.0625 103.3125 420.316406 102.910156 421.503906 C 102.527344 422.664062 101.996094 423.664062 101.3125 424.5 C 100.628906 425.363281 99.816406 426.039062 98.871094 426.523438 C 97.925781 427.011719 96.679688 427.253906 95.132812 427.253906 C 94.449219 427.253906 93.738281 427.171875 92.992188 427.011719 C 92.269531 426.847656 91.496094 426.566406 90.671875 426.160156 C 89.851562 425.730469 89.105469 425.203125 88.441406 424.582031 C 87.78125 423.933594 87.207031 423.097656 86.726562 422.070312 C 86.242188 421.019531 85.960938 419.84375 85.882812 418.546875 C 85.863281 418.199219 85.902344 417.726562 86.003906 417.132812 C 86.023438 417.023438 86.042969 416.886719 86.0625 416.726562 C 86.144531 416.320312 86.273438 415.929688 86.453125 415.550781 C 86.714844 414.957031 87.066406 414.5 87.507812 414.175781 C 87.949219 413.824219 88.421875 413.648438 88.925781 413.648438 C 89.125 413.648438 89.328125 413.675781 89.527344 413.730469 C 90.8125 414.136719 91.558594 415.132812 91.757812 416.726562 C 91.917969 417.886719 91.738281 418.886719 91.214844 419.722656 C 90.574219 420.722656 90.433594 421.679688 90.792969 422.597656 C 90.875 422.839844 90.984375 423.082031 91.125 423.328125 C 91.285156 423.570312 91.515625 423.867188 91.820312 424.21875 C 92.140625 424.566406 92.5625 424.863281 93.085938 425.109375 C 93.605469 425.324219 94.199219 425.433594 94.863281 425.433594 C 95.183594 425.433594 95.527344 425.40625 95.886719 425.351562 C 96.1875 425.296875 96.46875 425.214844 96.730469 425.109375 C 97.011719 424.972656 97.3125 424.785156 97.636719 424.542969 C 97.957031 424.269531 98.207031 423.90625 98.390625 423.449219 C 98.589844 422.988281 98.691406 422.4375 98.691406 421.789062 C 98.691406 420.628906 98.378906 419.683594 97.753906 418.953125 C 97.113281 418.199219 96.058594 417.480469 94.589844 416.808594 L 92.300781 415.511719 C 92.039062 414.566406 91.496094 413.824219 90.671875 413.285156 C 89.890625 412.800781 89.027344 412.703125 88.082031 413 C 87.761719 412.703125 87.46875 412.339844 87.207031 411.910156 C 86.765625 411.289062 86.433594 410.570312 86.214844 409.761719 C 85.992188 408.953125 85.882812 408.074219 85.882812 407.128906 C 85.882812 405.78125 86.074219 404.527344 86.453125 403.363281 C 86.835938 402.203125 87.367188 401.207031 88.050781 400.367188 C 88.734375 399.503906 89.546875 398.832031 90.492188 398.34375 C 91.4375 397.832031 92.460938 397.574219 93.566406 397.574219 C 94.429688 397.546875 95.394531 397.628906 96.460938 397.816406 C 97.726562 398.035156 99.503906 398.65625 101.792969 399.679688 L 102.003906 399.761719 L 101.882812 404.945312 L 101.402344 404.417969 C 101.261719 404.253906 101.089844 404.082031 100.890625 403.890625 C 100.710938 403.703125 100.316406 403.339844 99.714844 402.796875 C 99.113281 402.257812 98.519531 401.800781 97.9375 401.421875 C 97.375 401.015625 96.699219 400.652344 95.917969 400.328125 C 95.132812 399.976562 94.421875 399.800781 93.777344 399.800781 C 92.832031 399.800781 92.070312 400.152344 91.488281 400.855469 C 90.945312 401.503906 90.671875 402.367188 90.671875 403.445312 C 90.671875 404.363281 90.984375 405.171875 91.609375 405.875 C 92.269531 406.660156 93.324219 407.386719 94.773438 408.0625 C 95.09375 408.222656 95.386719 408.371094 95.644531 408.507812 L 98.390625 409.84375 C 99.492188 410.382812 100.417969 411.003906 101.160156 411.707031 C 101.5625 412.109375 101.90625 412.515625 102.1875 412.921875 C 102.910156 414.027344 103.332031 415.390625 103.453125 417.011719 C 103.472656 417.011719 103.480469 417.023438 103.480469 417.050781 C 103.480469 417.078125 103.472656 417.183594 103.453125 417.375 Z M 103.453125 417.375 "/>
<path style=" stroke:none;fill-rule:nonzero;fill:rgb(0%,0%,0%);fill-opacity:1;" d="M 125.542969 398.585938 L 125.574219 398.585938 L 125.574219 404.132812 L 123.886719 404.132812 C 123.886719 403.324219 123.65625 402.582031 123.191406 401.90625 C 122.75 401.207031 122.175781 400.855469 121.472656 400.855469 C 119.503906 400.855469 118.25 400.855469 117.707031 400.855469 C 117.707031 400.960938 117.707031 407.871094 117.707031 421.585938 C 117.765625 422.449219 118.039062 423.164062 118.519531 423.730469 C 119.003906 424.269531 119.535156 424.542969 120.117188 424.542969 L 120.117188 426.808594 L 109.449219 426.808594 L 109.449219 424.542969 C 110.03125 424.542969 110.574219 424.246094 111.078125 423.652344 C 111.578125 423.054688 111.839844 422.3125 111.859375 421.421875 L 111.859375 400.855469 C 111.296875 400.855469 110.042969 400.855469 108.09375 400.855469 L 108.09375 400.894531 C 107.390625 400.894531 106.808594 401.234375 106.34375 401.90625 C 105.902344 402.582031 105.683594 403.324219 105.683594 404.132812 L 103.996094 404.132812 L 103.996094 398.585938 Z M 125.542969 398.585938 "/>
<path style=" stroke:none;fill-rule:nonzero;fill:rgb(0%,0%,0%);fill-opacity:1;" d="M 150.144531 413.550781 L 150.144531 428.449219 L 149.511719 428.449219 C 149.148438 428.394531 148.828125 428.234375 148.546875 427.964844 C 147.863281 427.316406 147.089844 427.179688 146.226562 427.558594 C 146.125 427.585938 145.996094 427.625 145.835938 427.679688 C 145.671875 427.707031 145.421875 427.773438 145.082031 427.882812 C 144.738281 427.992188 144.476562 428.058594 144.296875 428.085938 L 144.296875 428.042969 C 143.59375 428.339844 142.859375 428.488281 142.097656 428.488281 C 139.90625 428.488281 137.988281 427.71875 136.339844 426.183594 C 133.449219 423.429688 131.859375 419.648438 131.578125 414.84375 C 131.339844 410.929688 132.042969 407.488281 133.6875 404.519531 C 134.453125 403.144531 135.355469 402.007812 136.402344 401.117188 C 138.589844 399.285156 141.203125 398.621094 144.238281 399.136719 C 144.457031 399.1875 144.648438 399.230469 144.808594 399.257812 C 145.914062 399.527344 146.941406 400.175781 147.882812 401.199219 C 148.648438 402.007812 149.210938 402.996094 149.570312 404.15625 C 149.832031 404.992188 149.972656 405.855469 149.992188 406.746094 C 149.992188 407.015625 149.992188 407.300781 149.992188 407.597656 C 149.972656 407.949219 149.933594 408.285156 149.871094 408.609375 C 149.871094 408.636719 149.863281 408.675781 149.84375 408.730469 L 149.722656 409.214844 C 149.722656 409.214844 149.722656 409.230469 149.722656 409.257812 C 149.703125 409.3125 149.691406 409.339844 149.691406 409.339844 C 149.691406 409.363281 149.683594 409.40625 149.664062 409.460938 C 149.640625 409.511719 149.621094 409.566406 149.601562 409.621094 L 149.570312 409.660156 C 149.550781 409.714844 149.53125 409.757812 149.511719 409.785156 C 149.492188 409.808594 149.460938 409.863281 149.421875 409.945312 L 149.359375 410.105469 C 149.28125 410.214844 149.199219 410.335938 149.121094 410.472656 L 149.089844 410.511719 C 149.007812 410.621094 148.949219 410.699219 148.910156 410.753906 L 148.816406 410.835938 C 148.394531 411.242188 147.925781 411.457031 147.402344 411.484375 C 146.878906 411.511719 146.386719 411.363281 145.925781 411.039062 C 145.503906 410.6875 145.160156 410.214844 144.898438 409.621094 C 144.640625 409.027344 144.5 408.394531 144.476562 407.71875 C 144.457031 407.070312 144.546875 406.476562 144.75 405.9375 C 145.152344 404.75 145.3125 403.722656 145.230469 402.859375 C 145.171875 401.96875 144.949219 401.347656 144.570312 400.996094 C 143.867188 400.375 143.011719 400.269531 142.007812 400.671875 C 140.699219 401.210938 139.636719 402.671875 138.8125 405.046875 C 137.988281 407.394531 137.578125 409.890625 137.578125 412.535156 C 137.578125 413.941406 137.6875 415.289062 137.910156 416.585938 C 138.148438 417.882812 138.492188 419.097656 138.933594 420.230469 C 139.394531 421.335938 140.019531 422.265625 140.800781 423.023438 C 141.585938 423.753906 142.488281 424.199219 143.515625 424.359375 C 143.65625 424.386719 143.914062 424.386719 144.296875 424.359375 L 144.296875 418.570312 C 144.195312 417.757812 143.90625 417.097656 143.421875 416.585938 C 142.960938 416.074219 142.460938 415.816406 141.917969 415.816406 L 141.917969 413.546875 L 144.296875 413.546875 Z M 150.144531 413.550781 "/>
<path style=" stroke:none;fill-rule:nonzero;fill:rgb(0%,0%,0%);fill-opacity:1;" d="M 174.085938 421.605469 L 174.929688 421.605469 L 174.929688 427.921875 L 156.457031 427.921875 L 156.457031 425.65625 C 157.019531 425.65625 157.550781 425.371094 158.054688 424.804688 C 158.554688 424.238281 158.828125 423.523438 158.867188 422.660156 L 158.867188 405.007812 C 158.828125 404.140625 158.554688 403.425781 158.054688 402.859375 C 157.550781 402.292969 157.019531 402.007812 156.457031 402.007812 L 156.457031 399.742188 L 173.753906 399.742188 L 173.753906 406.058594 L 172.910156 406.058594 C 172.128906 406.058594 171.445312 405.476562 170.863281 404.316406 C 170.601562 403.804688 170.421875 403.46875 170.320312 403.304688 C 170.238281 403.144531 170.089844 402.925781 169.867188 402.65625 C 169.648438 402.359375 169.394531 402.171875 169.113281 402.089844 C 168.851562 402.007812 168.523438 401.96875 168.121094 401.96875 L 168.148438 401.96875 C 166.199219 401.96875 165.054688 401.96875 164.714844 401.96875 L 164.714844 412.253906 L 165.859375 412.253906 C 166.542969 412.253906 167.195312 411.917969 167.820312 411.242188 C 168.460938 410.566406 168.78125 409.890625 168.78125 409.21875 L 170.5625 409.21875 L 170.5625 417.558594 L 168.78125 417.558594 C 168.78125 416.882812 168.460938 416.207031 167.820312 415.535156 C 167.195312 414.859375 166.550781 414.519531 165.890625 414.519531 L 164.714844 414.519531 L 164.714844 422.699219 C 164.714844 423.941406 164.816406 424.75 165.015625 425.128906 C 165.214844 425.507812 165.617188 425.695312 166.222656 425.695312 L 169.324219 425.695312 L 169.324219 425.65625 C 169.707031 425.65625 170.027344 425.613281 170.289062 425.535156 C 170.570312 425.453125 170.820312 425.277344 171.042969 425.007812 C 171.265625 424.738281 171.414062 424.523438 171.496094 424.359375 C 171.59375 424.199219 171.777344 423.859375 172.039062 423.347656 C 172.621094 422.1875 173.304688 421.605469 174.085938 421.605469 Z M 174.085938 421.605469 "/>
<path style=" stroke:none;fill-rule:nonzero;fill:rgb(0%,0%,0%);fill-opacity:1;" d="M 197.023438 399.742188 L 197.050781 399.742188 L 197.050781 405.289062 L 195.363281 405.289062 C 195.363281 404.480469 195.132812 403.738281 194.671875 403.0625 C 194.230469 402.359375 193.65625 402.007812 192.953125 402.007812 C 190.984375 402.007812 189.730469 402.007812 189.1875 402.007812 C 189.1875 402.117188 189.1875 409.027344 189.1875 422.742188 C 189.246094 423.605469 189.519531 424.320312 190 424.886719 C 190.480469 425.425781 191.015625 425.695312 191.597656 425.695312 L 191.597656 427.964844 L 180.929688 427.964844 L 180.929688 425.695312 C 181.511719 425.695312 182.054688 425.398438 182.554688 424.804688 C 183.058594 424.210938 183.320312 423.46875 183.339844 422.578125 L 183.339844 402.007812 C 182.777344 402.007812 181.519531 402.007812 179.574219 402.007812 L 179.574219 402.050781 C 178.867188 402.050781 178.285156 402.386719 177.824219 403.0625 C 177.382812 403.738281 177.160156 404.480469 177.160156 405.289062 L 175.472656 405.289062 L 175.472656 399.742188 Z M 197.023438 399.742188 "/>
<path style=" stroke:none;fill-rule:nonzero;fill:rgb(0%,0%,0%);fill-opacity:1;" d="M 226.527344 415.25 C 226.910156 416.300781 227.101562 417.464844 227.101562 418.730469 L 227.101562 418.851562 C 227.101562 418.90625 227.101562 419 227.101562 419.136719 L 227.101562 419.257812 C 227.039062 420.527344 226.820312 421.660156 226.4375 422.660156 C 225.996094 423.792969 225.363281 424.75 224.539062 425.535156 C 223.714844 426.316406 222.710938 426.910156 221.523438 427.316406 C 220.359375 427.71875 218.773438 427.921875 216.761719 427.921875 L 205.070312 427.921875 L 205.070312 425.65625 C 205.671875 425.65625 206.222656 425.359375 206.726562 424.765625 C 207.25 424.144531 207.511719 423.359375 207.511719 422.417969 L 207.511719 405.207031 C 207.511719 404.289062 207.25 403.535156 206.726562 402.941406 C 206.222656 402.320312 205.671875 402.007812 205.070312 402.007812 L 205.070312 399.742188 L 215.917969 399.742188 C 217.6875 399.742188 219.125 399.917969 220.230469 400.269531 C 221.332031 400.621094 222.316406 401.347656 223.183594 402.453125 C 223.90625 403.371094 224.246094 404.492188 224.207031 405.816406 L 224.207031 405.898438 C 224.167969 406.382812 224.085938 406.855469 223.964844 407.3125 L 223.9375 407.394531 C 223.914062 407.503906 223.894531 407.554688 223.875 407.554688 L 223.875 407.597656 C 223.816406 407.785156 223.746094 407.960938 223.664062 408.125 C 223.605469 408.257812 223.542969 408.394531 223.484375 408.527344 C 223.441406 408.582031 223.414062 408.621094 223.394531 408.648438 C 223.332031 408.757812 223.261719 408.867188 223.183594 408.972656 C 223.140625 409.054688 223.101562 409.109375 223.0625 409.136719 C 222.660156 409.703125 222.148438 410.160156 221.523438 410.511719 C 223.414062 411.078125 224.851562 412.1875 225.835938 413.832031 C 226.09375 414.265625 226.328125 414.738281 226.527344 415.25 Z M 213.355469 401.96875 L 213.355469 410.109375 L 214.953125 410.066406 C 215.296875 410.039062 215.628906 410 215.949219 409.945312 C 216.613281 409.8125 217.132812 409.566406 217.515625 409.21875 C 217.597656 409.136719 217.675781 409.042969 217.757812 408.933594 C 218.421875 408.175781 218.761719 407.164062 218.78125 405.898438 C 218.78125 405.601562 218.773438 405.316406 218.75 405.046875 C 218.609375 404.046875 218.199219 403.277344 217.515625 402.738281 C 217.335938 402.578125 217.113281 402.457031 216.851562 402.375 C 216.710938 402.320312 216.542969 402.265625 216.339844 402.210938 C 216.121094 402.160156 215.46875 402.105469 214.382812 402.050781 L 214.050781 402.050781 Z M 216.3125 425.613281 C 217.15625 425.613281 217.886719 425.453125 218.511719 425.128906 C 219.152344 424.804688 219.636719 424.425781 219.957031 423.996094 C 220.300781 423.535156 220.570312 422.984375 220.769531 422.335938 C 220.992188 421.6875 221.121094 421.121094 221.164062 420.636719 C 221.222656 420.121094 221.253906 419.582031 221.253906 419.015625 C 221.253906 417.910156 221.144531 416.9375 220.921875 416.101562 C 220.699219 415.261719 220.410156 414.628906 220.046875 414.195312 C 219.6875 413.765625 219.285156 413.402344 218.84375 413.105469 C 218.398438 412.78125 217.957031 412.589844 217.515625 412.535156 C 217.09375 412.484375 216.703125 412.429688 216.339844 412.375 C 216 412.292969 215.726562 412.292969 215.527344 412.375 C 215.425781 412.375 215.367188 412.375 215.347656 412.375 L 213.355469 412.375 L 213.355469 423.023438 C 213.355469 423.78125 213.566406 424.414062 213.988281 424.925781 C 214.351562 425.386719 214.773438 425.613281 215.253906 425.613281 C 215.277344 425.613281 215.417969 425.613281 215.675781 425.613281 C 215.957031 425.613281 216.167969 425.613281 216.308594 425.613281 Z M 216.3125 425.613281 "/>
<path style=" stroke:none;fill-rule:nonzero;fill:rgb(0%,0%,0%);fill-opacity:1;" d="M 245.03125 421.605469 L 245.875 421.605469 L 245.875 427.921875 L 227.402344 427.921875 L 227.402344 425.65625 C 227.964844 425.65625 228.496094 425.371094 229 424.804688 C 229.5 424.238281 229.773438 423.523438 229.8125 422.660156 L 229.8125 405.007812 C 229.773438 404.140625 229.5 403.425781 229 402.859375 C 228.496094 402.292969 227.964844 402.007812 227.402344 402.007812 L 227.402344 399.742188 L 244.699219 399.742188 L 244.699219 406.058594 L 243.855469 406.058594 C 243.074219 406.058594 242.390625 405.476562 241.808594 404.316406 C 241.546875 403.804688 241.367188 403.46875 241.265625 403.304688 C 241.183594 403.144531 241.035156 402.925781 240.8125 402.65625 C 240.59375 402.359375 240.339844 402.171875 240.058594 402.089844 C 239.796875 402.007812 239.464844 401.96875 239.066406 401.96875 L 239.09375 401.96875 C 237.144531 401.96875 236 401.96875 235.660156 401.96875 L 235.660156 412.253906 L 236.804688 412.253906 C 237.488281 412.253906 238.140625 411.917969 238.761719 411.242188 C 239.40625 410.566406 239.726562 409.890625 239.726562 409.21875 L 241.507812 409.21875 L 241.507812 417.558594 L 239.726562 417.558594 C 239.726562 416.882812 239.40625 416.207031 238.761719 415.535156 C 238.140625 414.859375 237.496094 414.519531 236.835938 414.519531 L 235.660156 414.519531 L 235.660156 422.699219 C 235.660156 423.941406 235.757812 424.75 235.960938 425.128906 C 236.160156 425.507812 236.5625 425.695312 237.164062 425.695312 L 240.269531 425.695312 L 240.269531 425.65625 C 240.652344 425.65625 240.972656 425.613281 241.234375 425.535156 C 241.515625 425.453125 241.765625 425.277344 241.988281 425.007812 C 242.210938 424.738281 242.359375 424.523438 242.441406 424.359375 C 242.539062 424.199219 242.722656 423.859375 242.984375 423.347656 C 243.566406 422.1875 244.25 421.605469 245.03125 421.605469 Z M 245.03125 421.605469 "/>
<path style=" stroke:none;fill-rule:nonzero;fill:rgb(0%,0%,0%);fill-opacity:1;" d="M 267.96875 399.742188 L 267.996094 399.742188 L 267.996094 405.289062 L 266.308594 405.289062 C 266.308594 404.480469 266.078125 403.738281 265.617188 403.0625 C 265.175781 402.359375 264.601562 402.007812 263.898438 402.007812 C 261.929688 402.007812 260.675781 402.007812 260.132812 402.007812 C 260.132812 402.117188 260.132812 409.027344 260.132812 422.742188 C 260.191406 423.605469 260.460938 424.320312 260.945312 424.886719 C 261.425781 425.425781 261.960938 425.695312 262.542969 425.695312 L 262.542969 427.964844 L 251.875 427.964844 L 251.875 425.695312 C 252.457031 425.695312 253 425.398438 253.5 424.804688 C 254.003906 424.210938 254.265625 423.46875 254.285156 422.578125 L 254.285156 402.007812 C 253.722656 402.007812 252.464844 402.007812 250.515625 402.007812 L 250.515625 402.050781 C 249.8125 402.050781 249.230469 402.386719 248.769531 403.0625 C 248.328125 403.738281 248.105469 404.480469 248.105469 405.289062 L 246.417969 405.289062 L 246.417969 399.742188 Z M 267.96875 399.742188 "/>
<path style=" stroke:none;fill-rule:nonzero;fill:rgb(0%,0%,0%);fill-opacity:1;" d="M 289.636719 399.742188 L 289.667969 399.742188 L 289.667969 405.289062 L 287.980469 405.289062 C 287.980469 404.480469 287.746094 403.738281 287.285156 403.0625 C 286.84375 402.359375 286.269531 402.007812 285.566406 402.007812 C 283.597656 402.007812 282.34375 402.007812 281.800781 402.007812 C 281.800781 402.117188 281.800781 409.027344 281.800781 422.742188 C 281.859375 423.605469 282.132812 424.320312 282.613281 424.886719 C 283.097656 425.425781 283.628906 425.695312 284.210938 425.695312 L 284.210938 427.964844 L 273.542969 427.964844 L 273.542969 425.695312 C 274.125 425.695312 274.667969 425.398438 275.171875 424.804688 C 275.671875 424.210938 275.933594 423.46875 275.953125 422.578125 L 275.953125 402.007812 C 275.390625 402.007812 274.136719 402.007812 272.1875 402.007812 L 272.1875 402.050781 C 271.484375 402.050781 270.902344 402.386719 270.4375 403.0625 C 269.996094 403.738281 269.777344 404.480469 269.777344 405.289062 L 268.085938 405.289062 L 268.085938 399.742188 Z M 289.636719 399.742188 "/>
<path style=" stroke:none;fill-rule:nonzero;fill:rgb(0%,0%,0%);fill-opacity:1;" d="M 307.78125 421.605469 L 308.625 421.605469 L 308.625 427.921875 L 290.148438 427.921875 L 290.148438 425.65625 C 290.710938 425.65625 291.242188 425.371094 291.746094 424.804688 C 292.25 424.238281 292.519531 423.523438 292.558594 422.660156 L 292.558594 405.007812 C 292.519531 404.140625 292.25 403.425781 291.746094 402.859375 C 291.242188 402.292969 290.710938 402.007812 290.148438 402.007812 L 290.148438 399.742188 L 307.449219 399.742188 L 307.449219 406.058594 L 306.605469 406.058594 C 305.820312 406.058594 305.136719 405.476562 304.554688 404.316406 C 304.292969 403.804688 304.113281 403.46875 304.011719 403.304688 C 303.933594 403.144531 303.78125 402.925781 303.558594 402.65625 C 303.339844 402.359375 303.089844 402.171875 302.808594 402.089844 C 302.546875 402.007812 302.214844 401.96875 301.8125 401.96875 L 301.84375 401.96875 C 299.894531 401.96875 298.75 401.96875 298.40625 401.96875 L 298.40625 412.253906 L 299.550781 412.253906 C 300.234375 412.253906 300.886719 411.917969 301.511719 411.242188 C 302.152344 410.566406 302.476562 409.890625 302.476562 409.21875 L 304.253906 409.21875 L 304.253906 417.558594 L 302.476562 417.558594 C 302.476562 416.882812 302.152344 416.207031 301.511719 415.535156 C 300.886719 414.859375 300.246094 414.519531 299.582031 414.519531 L 298.40625 414.519531 L 298.40625 422.699219 C 298.40625 423.941406 298.507812 424.75 298.707031 425.128906 C 298.910156 425.507812 299.3125 425.695312 299.914062 425.695312 L 303.019531 425.695312 L 303.019531 425.65625 C 303.398438 425.65625 303.722656 425.613281 303.980469 425.535156 C 304.261719 425.453125 304.515625 425.277344 304.734375 425.007812 C 304.957031 424.738281 305.109375 424.523438 305.1875 424.359375 C 305.289062 424.199219 305.46875 423.859375 305.730469 423.347656 C 306.3125 422.1875 306.996094 421.605469 307.78125 421.605469 Z M 307.78125 421.605469 "/>
<path style=" stroke:none;fill-rule:nonzero;fill:rgb(0%,0%,0%);fill-opacity:1;" d="M 332.492188 425.695312 L 332.460938 425.695312 L 332.460938 427.964844 L 326.375 427.964844 C 325.75 427.964844 325.167969 427.773438 324.625 427.398438 C 324.105469 426.992188 323.671875 426.425781 323.332031 425.695312 L 321.070312 419.339844 C 320.847656 418.90625 320.609375 418.542969 320.347656 418.246094 C 320.085938 417.949219 319.804688 417.746094 319.503906 417.636719 C 319.203125 417.53125 318.929688 417.464844 318.691406 417.4375 C 318.46875 417.382812 318.1875 417.355469 317.84375 417.355469 L 317.84375 422.820312 C 317.925781 423.65625 318.207031 424.347656 318.691406 424.886719 C 319.171875 425.425781 319.683594 425.695312 320.226562 425.695312 L 320.226562 427.964844 L 309.558594 427.964844 L 309.558594 425.695312 C 310.160156 425.695312 310.714844 425.386719 311.214844 424.765625 C 311.738281 424.144531 312 423.375 312 422.457031 L 312 405.207031 C 311.980469 404.261719 311.71875 403.496094 311.214844 402.898438 C 310.714844 402.304688 310.160156 402.007812 309.558594 402.007812 L 309.558594 399.742188 L 322.9375 399.742188 C 325.632812 399.742188 327.660156 400.621094 329.027344 402.375 C 330.394531 404.15625 331.078125 406.21875 331.078125 408.570312 C 331.078125 410.917969 330.394531 412.957031 329.027344 414.683594 C 328.34375 415.574219 327.488281 416.25 326.464844 416.707031 C 326.785156 416.894531 327.136719 417.382812 327.519531 418.164062 C 327.921875 418.921875 328.363281 419.945312 328.847656 421.242188 C 329.347656 422.511719 329.679688 423.320312 329.839844 423.671875 C 330.445312 425.019531 331.328125 425.695312 332.492188 425.695312 Z M 323.78125 413.386719 C 324.566406 412.226562 324.957031 410.621094 324.957031 408.570312 C 324.957031 406.515625 324.566406 404.898438 323.78125 403.710938 C 322.980469 402.550781 321.59375 401.96875 319.625 401.96875 L 317.847656 401.96875 L 317.847656 415.167969 L 319.625 415.167969 C 321.59375 415.167969 322.980469 414.574219 323.78125 413.386719 Z M 323.78125 413.386719 "/>
<path style=" stroke:none;fill-rule:evenodd;fill:rgb(0%,50.196078%,0%);fill-opacity:1;" d="M 36.558594 434.195312 L 121.132812 434.195312 C 122.679688 434.195312 123.933594 435.445312 123.933594 436.992188 L 123.933594 437.171875 C 123.933594 438.714844 122.679688 439.96875 121.132812 439.96875 L 36.558594 439.96875 C 35.011719 439.96875 33.757812 438.714844 33.757812 437.171875 L 33.757812 436.992188 C 33.757812 435.445312 35.011719 434.195312 36.558594 434.195312 Z M 36.558594 434.195312 "/>
</g>
</svg>
